<svg width="17" height="9" viewBox="0 0 17 9" fill="none" xmlns="http://www.w3.org/2000/svg">
<path d="M16.6364 1.47258C16.637 1.6407 16.5999 1.80682 16.5278 1.95873C16.4558 2.11063 16.3506 2.24446 16.22 2.35038L9.46773 7.78598C9.26636 7.9515 9.01377 8.04199 8.75311 8.04199C8.49244 8.04199 8.23986 7.9515 8.03849 7.78598L1.28619 2.15906C1.05636 1.96804 0.911837 1.69355 0.8844 1.39597C0.856964 1.09839 0.948865 0.802094 1.13989 0.572272C1.33091 0.34245 1.6054 0.197924 1.90298 0.170487C2.20056 0.143051 2.49685 0.234951 2.72668 0.425972L8.75873 5.45644L14.7908 0.59478C14.956 0.457164 15.1571 0.369748 15.3704 0.342874C15.5838 0.316 15.8003 0.350794 15.9945 0.443138C16.1886 0.535482 16.3523 0.681512 16.466 0.863949C16.5798 1.04638 16.6389 1.25759 16.6364 1.47258Z" fill="white"/>
</svg>
