<svg width="12" height="6" viewBox="0 0 12 6" fill="none" xmlns="http://www.w3.org/2000/svg">
<path d="M11.9008 1.31657C11.9012 1.43586 11.8749 1.55372 11.8237 1.6615C11.7726 1.76928 11.698 1.86424 11.6053 1.93939L6.81436 5.79613C6.67148 5.91358 6.49226 5.97778 6.30731 5.97778C6.12236 5.97778 5.94314 5.91358 5.80027 5.79613L1.00928 1.80365C0.846218 1.66811 0.743671 1.47335 0.724204 1.26221C0.704737 1.05106 0.769943 0.840835 0.905479 0.677769C1.04101 0.514702 1.23578 0.412156 1.44692 0.392689C1.65806 0.373222 1.86829 0.438428 2.03136 0.573964L6.3113 4.14325L10.5912 0.693739C10.7085 0.596096 10.8512 0.534071 11.0025 0.515003C11.1539 0.495935 11.3075 0.520623 11.4453 0.586144C11.5831 0.651665 11.6992 0.755279 11.7799 0.884723C11.8606 1.01417 11.9026 1.16403 11.9008 1.31657Z" fill="black"/>
</svg>
