<svg width="19" height="19" viewBox="0 0 19 19" fill="none" xmlns="http://www.w3.org/2000/svg">
<path fill-rule="evenodd" clip-rule="evenodd" d="M0.715088 9.45628C0.715088 4.47387 4.74975 0.430176 9.74119 0.430176C14.7236 0.430176 18.7673 4.47387 18.7673 9.45628C18.7673 14.4477 14.7236 18.4824 9.74119 18.4824C4.74975 18.4824 0.715088 14.4477 0.715088 9.45628ZM11.754 11.1078L13.2162 6.48648C13.3155 6.17056 13.0266 5.8727 12.7107 5.97199L8.08937 7.41617C7.89982 7.47935 7.74638 7.62377 7.69222 7.81331L6.24804 12.4437C6.14876 12.7506 6.44662 13.0485 6.75351 12.9492L11.3568 11.505C11.5464 11.4508 11.6998 11.2974 11.754 11.1078Z" fill="black"/>
</svg>
