<svg width="19" height="19" viewBox="0 0 19 19" fill="none" xmlns="http://www.w3.org/2000/svg">
<path fill-rule="evenodd" clip-rule="evenodd" d="M0.71666 9.45628C0.71666 4.47387 4.75133 0.430176 9.74276 0.430176C14.7252 0.430176 18.7689 4.47387 18.7689 9.45628C18.7689 14.4477 14.7252 18.4824 9.74276 18.4824C4.75133 18.4824 0.71666 14.4477 0.71666 9.45628ZM11.7556 11.1078L13.2178 6.48648C13.3171 6.17056 13.0283 5.8727 12.7123 5.97199L8.09098 7.41617C7.90144 7.47935 7.74799 7.62377 7.69384 7.81331L6.24966 12.4437C6.15037 12.7506 6.44823 13.0485 6.75512 12.9492L11.3584 11.505C11.548 11.4508 11.7014 11.2974 11.7556 11.1078Z" fill="#D2D2D2"/>
</svg>
