<svg width="14" height="13" viewBox="0 0 14 13" fill="none" xmlns="http://www.w3.org/2000/svg">
<path d="M9.47266 1.42896H9.47461C9.86978 1.42805 10.2616 1.49609 10.6328 1.62915L10.79 1.6897L10.791 1.69067C11.1426 1.83614 11.4674 2.03877 11.751 2.29126L11.8701 2.40259V2.40356C12.1789 2.7056 12.4262 3.06473 12.5977 3.46118V3.46216C12.7532 3.8235 12.8415 4.20255 12.8604 4.59302L12.8643 4.76099V4.76294C12.8643 5.13026 12.799 5.52328 12.6602 5.93579L12.5967 6.11353L12.5957 6.11548C12.4823 6.41421 12.3271 6.72948 12.1309 7.05591L11.9209 7.38501C11.5089 7.99922 10.952 8.65106 10.2559 9.32446L9.94824 9.6145C8.89906 10.5823 7.85712 11.3265 7.38184 11.6506L7.11621 11.8274L6.86523 11.9875L6.61523 11.8274L6.60352 11.8206L6.53711 11.7776C6.49271 11.7484 6.42967 11.7064 6.35059 11.6526C6.19205 11.5446 5.96975 11.3894 5.70508 11.1946C5.30714 10.9016 4.81631 10.5208 4.30176 10.0774L3.78223 9.6145C3.04631 8.93509 2.44851 8.27529 1.99512 7.65063L1.80957 7.38501C1.58707 7.05282 1.40458 6.72924 1.2627 6.41919L1.13477 6.11353C0.952084 5.63585 0.866211 5.18266 0.866211 4.76294C0.866247 4.36831 0.935986 3.98474 1.07227 3.61841L1.13477 3.46216C1.28419 3.11502 1.49136 2.79608 1.74805 2.51978L1.86133 2.40356L1.8623 2.40259C2.1357 2.13485 2.44798 1.91807 2.79199 1.7561L2.94141 1.69067L2.94238 1.6897C3.3594 1.51652 3.80094 1.42896 4.25977 1.42896C4.81571 1.42899 5.3589 1.56201 5.8457 1.8147L6.05078 1.93091C6.17928 2.00929 6.30116 2.09459 6.41602 2.18774L6.86621 2.55298L7.31641 2.18774C7.37385 2.14115 7.43331 2.09685 7.49414 2.05396L7.68164 1.93091C8.15155 1.64424 8.68385 1.47456 9.23535 1.43677L9.47266 1.42896Z" stroke="#888888" stroke-width="1.42981"/>
</svg>
