<svg width="17" height="16" viewBox="0 0 17 16" fill="none" xmlns="http://www.w3.org/2000/svg">
<path fill-rule="evenodd" clip-rule="evenodd" d="M16.5486 9.32461V15.2112H13.1112V9.71132C13.1112 8.33635 12.6385 7.39106 11.3925 7.39106C10.4472 7.39106 9.88858 8.03558 9.63077 8.63713C9.54483 8.85196 9.50187 9.15274 9.50187 9.45351V15.2112H6.06442C6.06442 15.2112 6.10739 5.88718 6.06442 4.94189H9.50187V6.4028C9.50187 6.4028 9.50187 6.44576 9.4589 6.44576H9.50187V6.4028C9.97452 5.71531 10.7479 4.68408 12.5956 4.68408C14.8299 4.68408 16.5486 6.18796 16.5486 9.32461ZM2.54093 0.000610352C1.38079 0.000610352 0.607361 0.774033 0.607361 1.7623C0.607361 2.75055 1.33782 3.52398 2.49796 3.52398H2.54093C3.74404 3.52398 4.47449 2.75056 4.47449 1.7623C4.43153 0.774033 3.70107 0.000610352 2.54093 0.000610352ZM0.779264 15.2114H4.17375V4.94206H0.779264V15.2114Z" fill="black"/>
</svg>
