<svg width="22" height="19" viewBox="0 0 22 19" fill="none" xmlns="http://www.w3.org/2000/svg">
<path fill-rule="evenodd" clip-rule="evenodd" d="M19.3127 9.45684C19.3127 10.2645 20.0061 10.9217 20.8583 10.9217C21.2881 10.9217 21.6368 11.2523 21.6368 11.6596V14.3168C21.6368 16.5638 19.7082 18.3917 17.3374 18.3917H5.17724C2.80645 18.3917 0.876801 16.5638 0.876801 14.3168V11.6596C0.876801 11.2523 1.22557 10.9217 1.6553 10.9217C2.50854 10.9217 3.20192 10.2645 3.20192 9.45684C3.20192 8.66981 2.53657 8.07756 1.6553 8.07756C1.44874 8.07756 1.25152 7.99984 1.10516 7.86112C0.958803 7.72241 0.876801 7.5345 0.876801 7.33971L0.878877 4.5959C0.878877 2.3489 2.80748 0.52002 5.17828 0.52002H17.3354C19.7062 0.52002 21.6358 2.3489 21.6358 4.5959L21.6368 7.25412C21.6368 7.44891 21.5548 7.6378 21.4095 7.77553C21.2632 7.91425 21.0659 7.99197 20.8583 7.99197C20.0061 7.99197 19.3127 8.64915 19.3127 9.45684ZM13.5944 10.0995L14.8182 8.97007C15.031 8.77528 15.1047 8.48801 15.0123 8.22239C14.921 7.95676 14.6822 7.76787 14.3937 7.7295L12.7028 7.49536L11.9461 6.04327C11.8163 5.79339 11.5527 5.63795 11.2589 5.63696H11.2568C10.9641 5.63696 10.7005 5.79241 10.5686 6.04229L9.81193 7.49536L8.12414 7.72852C7.83246 7.76787 7.59372 7.95676 7.50134 8.22239C7.40999 8.48801 7.48369 8.77528 7.69544 8.97007L8.91925 10.0995L8.63068 11.6962C8.58086 11.9716 8.69815 12.2451 8.93689 12.4094C9.07183 12.5009 9.22857 12.5481 9.38739 12.5481C9.50883 12.5481 9.63132 12.5196 9.74342 12.4635L11.2568 11.71L12.7671 12.4616C13.0287 12.5944 13.3391 12.5737 13.5768 12.4084C13.8165 12.2451 13.9338 11.9716 13.884 11.6962L13.5944 10.0995Z" fill="#130F26"/>
</svg>
