<svg width="22" height="19" viewBox="0 0 22 19" fill="none" xmlns="http://www.w3.org/2000/svg">
<path fill-rule="evenodd" clip-rule="evenodd" d="M19.3141 9.45684C19.3141 10.2645 20.0075 10.9217 20.8597 10.9217C21.2894 10.9217 21.6382 11.2523 21.6382 11.6596V14.3168C21.6382 16.5638 19.7096 18.3917 17.3388 18.3917H5.17862C2.80782 18.3917 0.878174 16.5638 0.878174 14.3168V11.6596C0.878174 11.2523 1.22694 10.9217 1.65668 10.9217C2.50991 10.9217 3.2033 10.2645 3.2033 9.45684C3.2033 8.66981 2.53794 8.07756 1.65668 8.07756C1.45011 8.07756 1.25289 7.99984 1.10653 7.86112C0.960176 7.72241 0.878174 7.5345 0.878174 7.33971L0.88025 4.5959C0.88025 2.3489 2.80886 0.52002 5.17965 0.52002H17.3367C19.7075 0.52002 21.6372 2.3489 21.6372 4.5959L21.6382 7.25412C21.6382 7.44891 21.5562 7.6378 21.4109 7.77553C21.2645 7.91425 21.0673 7.99197 20.8597 7.99197C20.0075 7.99197 19.3141 8.64915 19.3141 9.45684ZM13.5958 10.0995L14.8196 8.97007C15.0324 8.77528 15.1061 8.48801 15.0138 8.22239C14.9224 7.95676 14.6837 7.76787 14.3951 7.7295L12.7042 7.49536L11.9475 6.04327C11.8177 5.79339 11.5541 5.63795 11.2603 5.63696H11.2583C10.9655 5.63696 10.7019 5.79241 10.5701 6.04229L9.81336 7.49536L8.12557 7.72852C7.83389 7.76787 7.59515 7.95676 7.50277 8.22239C7.41143 8.48801 7.48513 8.77528 7.69688 8.97007L8.92068 10.0995L8.63212 11.6962C8.58229 11.9716 8.69959 12.2451 8.93833 12.4094C9.07327 12.5009 9.23001 12.5481 9.38882 12.5481C9.51027 12.5481 9.63275 12.5196 9.74485 12.4635L11.2583 11.71L12.7686 12.4616C13.0301 12.5944 13.3405 12.5737 13.5782 12.4084C13.818 12.2451 13.9353 11.9716 13.8854 11.6962L13.5958 10.0995Z" fill="#D2D2D2"/>
</svg>
