<svg width="17" height="14" viewBox="0 0 17 14" fill="none" xmlns="http://www.w3.org/2000/svg">
<path fill-rule="evenodd" clip-rule="evenodd" d="M16.2071 1.8584C15.607 2.12096 15.0068 2.30851 14.3317 2.38352C15.0068 1.97093 15.532 1.33328 15.757 0.583116C15.1194 0.958199 14.4067 1.22076 13.694 1.37079C13.0939 0.733146 12.2312 0.320557 11.2935 0.320557C9.49306 0.320557 8.03022 1.78338 8.03022 3.58379C8.03022 3.84635 8.06773 4.1089 8.10524 4.33396C5.36711 4.18392 2.96655 2.90863 1.35368 0.920693C1.05361 1.4083 0.903576 1.97093 0.903576 2.57106C0.903576 3.69632 1.46621 4.70904 2.36642 5.30917C1.84129 5.30917 1.31617 5.15914 0.866067 4.89658V4.93409C0.866067 6.50944 1.99133 7.85974 3.49168 8.1598C3.22911 8.23482 2.92905 8.27233 2.62897 8.27233C2.40392 8.27233 2.21638 8.23482 2.02884 8.19732C2.44143 9.5101 3.64171 10.4478 5.10454 10.4853C3.97929 11.348 2.59146 11.8731 1.05361 11.8731C0.791052 11.8731 0.528492 11.8731 0.26593 11.8356C1.72877 12.7733 3.41666 13.2985 5.29209 13.2985C11.331 13.2985 14.5942 8.30984 14.5942 3.99638C14.5942 3.84635 14.5942 3.69632 14.5942 3.58379C15.2319 3.09618 15.7945 2.49604 16.2071 1.8584Z" fill="black"/>
</svg>
